<?xml version="1.0" standalone="no"?>
<!DOCTYPE svg PUBLIC "-//W3C//DTD SVG 20010904//EN"
 "http://www.w3.org/TR/2001/REC-SVG-20010904/DTD/svg10.dtd">
<svg version="1.0" xmlns="http://www.w3.org/2000/svg"
 width="1103.000000pt" height="1280.000000pt" viewBox="0 0 1103.000000 1280.000000"
 preserveAspectRatio="xMidYMid meet">
	<metadata>
		Created by potrace 1.15, written by Peter Selinger 2001-2017
	</metadata>
	<g transform="translate(0.000000,1280.000000) scale(0.100000,-0.100000)"
	fill="#ffc107" stroke="none">
		<path d="M5630 12330 c-371 -39 -747 -207 -1160 -521 -322 -244 -702 -625
-1026 -1029 -723 -902 -1325 -2056 -1634 -3135 -17 -60 -40 -139 -50 -175
-104 -361 -206 -971 -228 -1360 -7 -144 -10 -546 -3 -693 8 -193 46 -483 92
-712 243 -1218 925 -2202 1954 -2820 145 -88 438 -233 590 -293 786 -310 1629
-388 2460 -226 1022 200 1930 765 2542 1582 382 511 652 1133 777 1787 78 407
107 831 87 1243 -13 276 -14 281 -42 512 -185 1517 -938 3180 -2023 4470 -167
198 -573 604 -741 741 -435 354 -811 549 -1185 613 -112 19 -304 27 -410 16z"/>
	</g>
</svg>
