<svg width="1103" height="1280" xmlns="http://www.w3.org/2000/svg" stroke="null" style="vector-effect: non-scaling-stroke;" preserveAspectRatio="xMidYMid meet">

	<g stroke="null">
		<title stroke="null">background</title>
		<rect stroke="null" fill="none" id="canvas_background" height="602" width="802" y="-1" x="-1"/>
	</g>
	<g stroke="null">
		<title stroke="null">Layer 1</title>
		<ellipse stroke="#000" ry="633.76664" rx="547.51437" id="svg_6" cy="642.38291" cx="555.25015" stroke-width="1.5" fill="#000000"/>
		<g id="svg_1" fill="#ffc107" transform="translate(0,1280) scale(0.10000000149011612,-0.10000000149011612) ">
			<path stroke="null" id="svg_2" d="m5377.69718,10079.19767c-256.91331,-25.27186 -517.28906,-134.13525 -803.2869,-337.60612c-222.98136,-158.11112 -486.12707,-404.99774 -710.49341,-666.78828c-500.66934,-584.49274 -917.54754,-1332.28058 -1131.52655,-2031.46868c-11.77231,-38.87978 -27.69955,-90.0715 -34.62444,-113.39937c-72.01883,-233.9267 -142.65267,-629.20449 -157.88743,-881.27509c-4.84742,-93.31148 -6.92489,-353.80603 -2.07747,-449.0615c5.53991,-125.0633 31.85448,-312.98226 63.70896,-461.37343c168.27476,-789.2596 640.55205,-1426.88805 1353.12293,-1827.34982c100.41086,-57.02368 303.31005,-150.98316 408.56834,-189.86294c544.29612,-200.87888 1128.0641,-251.4226 1703.52222,-146.44718c707.72346,129.59928 1336.50321,495.71724 1760.30629,1025.13029c264.53069,331.12615 451.50264,734.17991 538.06373,1157.96955c54.01412,263.73453 74.09629,538.485 60.24652,805.45951c-9.00235,178.847 -9.69484,182.08699 -29.08453,331.77415c-128.11041,983.01052 -649.55441,2060.62852 -1400.90466,2896.54386c-115.64561,128.30329 -396.79603,391.38982 -513.13413,480.16532c-301.23259,229.39072 -561.60834,355.75002 -820.59912,397.22179c-77.55874,12.31193 -210.51657,17.4959 -283.92037,10.36794z"/>
		</g>
	</g>
</svg>